<svg xmlns="http://www.w3.org/2000/svg" xmlns:xlink="http://www.w3.org/1999/xlink" viewBox="0 0 25 31.25" version="1.1" x="0px" y="0px"><title>Icons1/leave</title><desc>Created with Sketch.</desc><g stroke="none" stroke-width="1" fill="black" fill-rule="evenodd"><path d="M14.0739,15.8331 C13.6549,15.7941 13.2949,16.0951 13.2549,16.5071 C13.1749,17.3291 12.5139,18.0971 12.0309,18.1841 C10.0509,18.5111 8.9059,18.5101 6.9349,18.1851 C6.4419,18.0971 5.7819,17.3291 5.7029,16.5131 C5.4319,13.4951 5.4319,10.4351 5.7019,7.4221 C5.7819,6.6011 6.4419,5.8331 6.9259,5.7461 C8.9049,5.4191 10.0499,5.4191 12.0209,5.7441 C12.5139,5.8331 13.1749,6.6011 13.2549,7.4221 C13.2939,7.8341 13.6449,8.1331 14.0739,8.0961 C14.4859,8.0561 14.7879,7.6891 14.7469,7.2771 C14.6059,5.8351 13.5019,4.4851 12.2749,4.2661 C10.1319,3.9111 8.8229,3.9111 6.6719,4.2681 C5.4549,4.4851 4.3499,5.8351 4.2089,7.2831 C3.9299,10.3891 3.9299,13.5401 4.2099,16.6521 C4.3499,18.0941 5.4549,19.4441 6.6809,19.6631 C7.7519,19.8401 8.6139,19.9291 9.4759,19.9291 C10.3419,19.9291 11.2069,19.8401 12.2849,19.6621 C13.5019,19.4441 14.6059,18.0941 14.7469,16.6521 C14.7879,16.2401 14.4859,15.8741 14.0739,15.8331" fill="#000000"/><path d="M21.8707,12.128 C21.8757,12.095 21.8897,12.064 21.8897,12.031 C21.8897,12.03 21.8907,12.029 21.8907,12.027 C21.8897,11.923 21.8667,11.824 21.8277,11.734 C21.3067,10.525 20.5957,9.635 19.3777,8.664 C19.0537,8.407 18.5827,8.458 18.3227,8.783 C18.0647,9.107 18.1187,9.579 18.4417,9.837 C19.0667,10.335 19.5127,10.793 19.8667,11.294 L10.3837,11.371 C9.9697,11.374 9.6367,11.712 9.6397,12.127 C9.6417,12.539 9.9777,12.871 10.3897,12.871 L10.3947,12.871 L19.6797,12.795 C19.2657,13.224 18.7817,13.611 18.3587,13.867 C18.0047,14.081 17.8907,14.542 18.1037,14.897 C18.2457,15.13 18.4927,15.259 18.7477,15.259 C18.8797,15.259 19.0137,15.224 19.1347,15.151 C20.0487,14.599 21.3037,13.53 21.8267,12.335 C21.8277,12.332 21.8267,12.33 21.8287,12.327 C21.8547,12.266 21.8617,12.197 21.8707,12.128" fill="#000000"/></g><text x="0" y="40" fill="#000000" font-size="5px" font-weight="bold" font-family="'Helvetica Neue', Helvetica, Arial-Unicode, Arial, Sans-serif">Created by Ami Shah</text><text x="0" y="45" fill="#000000" font-size="5px" font-weight="bold" font-family="'Helvetica Neue', Helvetica, Arial-Unicode, Arial, Sans-serif">from the Noun Project</text></svg>